<svg width="14" height="12" viewBox="0 0 14 12" fill="none" xmlns="http://www.w3.org/2000/svg"><path fill-rule="evenodd" clip-rule="evenodd" d="M1 0C0.447715 0 0 0.447715 0 1C0 1.55228 0.447715 2 1 2H13C13.5523 2 14 1.55228 14 1C14 0.447715 13.5523 0 13 0H1ZM0 6C0 5.44772 0.447715 5 1 5H13C13.5523 5 14 5.44772 14 6C14 6.55228 13.5523 7 13 7H1C0.447715 7 0 6.55228 0 6ZM1 10C0.447715 10 0 10.4477 0 11C0 11.5523 0.447715 12 1 12H13C13.5523 12 14 11.5523 14 11C14 10.4477 13.5523 10 13 10H1Z" fill="currentColor"></path></svg>